<svg width="131" height="131" viewBox="0 0 131 131" fill="none" xmlns="http://www.w3.org/2000/svg">
<path d="M116.24 64.5002C116.764 92.6751 94.3478 115.94 66.1729 116.464C37.9979 116.987 14.7331 94.5715 14.2094 66.3965C13.6858 38.2215 36.1016 14.9567 64.2765 14.4331C92.4515 13.9094 115.716 36.3252 116.24 64.5002Z" fill="url(#paint0_linear_14_20)" fill-opacity="0.45"/>
<path d="M111.076 56.9648L113.675 56.6949L114.475 64.3964L111.875 64.6663L111.076 56.9648ZM124.17 61.6081L110.79 62.997C109.886 63.0909 109.117 62.9927 108.485 62.7025C107.852 62.4069 107.355 61.9659 106.993 61.3794C106.631 60.7929 106.409 60.107 106.328 59.3216C106.273 58.7909 106.263 58.3019 106.299 57.8548C106.334 57.4023 106.372 57.0643 106.415 56.8409L109.079 57.1885C109.049 57.3284 109.026 57.5005 109.009 57.7048C108.992 57.9037 108.993 58.1061 109.015 58.3119C109.068 58.821 109.224 59.1634 109.483 59.339C109.736 59.5152 110.074 59.5814 110.497 59.5376L123.812 58.1554L124.17 61.6081Z" fill="black"/>
<path d="M122.796 52.2189L110.673 55.4494L109.777 52.0873L121.9 48.8568L122.796 52.2189ZM108.66 54.1769C108.794 54.6767 108.742 55.1497 108.506 55.5958C108.263 56.038 107.908 56.3216 107.439 56.4464C106.976 56.5697 106.532 56.4993 106.107 56.2352C105.675 55.9671 105.392 55.5832 105.259 55.0833C105.126 54.5835 105.181 54.1124 105.423 53.6702C105.659 53.2241 106.009 52.9393 106.472 52.8159C106.94 52.6912 107.39 52.7628 107.823 53.0308C108.248 53.295 108.527 53.677 108.66 54.1769Z" fill="black"/>
<path d="M112.409 43.9543L118.848 40.6162L120.45 43.7052L109.312 49.4792L107.786 46.5353L109.751 45.5165L109.683 45.386C108.908 45.4753 108.181 45.3276 107.503 44.943C106.82 44.5609 106.265 43.9565 105.836 43.1299C105.435 42.3565 105.255 41.5944 105.295 40.8437C105.335 40.093 105.587 39.3953 106.05 38.7504C106.508 38.1081 107.17 37.5626 108.035 37.114L115.127 33.4376L116.728 36.5266L110.188 39.9173C109.504 40.2658 109.062 40.7155 108.863 41.2664C108.659 41.8198 108.718 42.4058 109.039 43.0246C109.254 43.4403 109.534 43.7614 109.878 43.9877C110.22 44.2092 110.609 44.3204 111.045 44.3213C111.473 44.3199 111.928 44.1976 112.409 43.9543Z" fill="black"/>
<path d="M108.689 25.1883C109.354 25.8715 109.779 26.6612 109.967 27.5571C110.147 28.453 110.051 29.397 109.679 30.3891C109.299 31.381 108.607 32.3647 107.604 33.3402C106.573 34.3422 105.555 35.0094 104.549 35.3417C103.539 35.6779 102.597 35.7358 101.722 35.5155C100.84 35.2951 100.078 34.855 99.4361 34.1952C98.9465 33.6916 98.6244 33.1884 98.4698 32.6856C98.3074 32.1827 98.2526 31.7045 98.3052 31.2508C98.3501 30.7971 98.4405 30.3979 98.5763 30.0533L98.5022 29.9771L93.9929 34.3609L91.5732 31.872L103.567 20.2122L105.958 22.6719L104.518 24.0724L104.62 24.1778C104.984 24.052 105.393 23.9769 105.848 23.9526C106.295 23.9281 106.763 24.0078 107.254 24.1919C107.74 24.372 108.219 24.7042 108.689 25.1883ZM105.935 26.3277C105.544 25.9256 105.105 25.6922 104.617 25.6275C104.121 25.5628 103.602 25.6498 103.059 25.8886C102.513 26.1234 101.973 26.5009 101.438 27.0209C100.903 27.5408 100.51 28.0667 100.26 28.5984C100.01 29.1301 99.9144 29.6409 99.9729 30.1307C100.031 30.6206 100.256 31.0666 100.647 31.4687C101.046 31.8787 101.493 32.116 101.989 32.1808C102.484 32.2455 103 32.1585 103.535 31.9196C104.069 31.6807 104.596 31.3089 105.116 30.804C105.639 30.2954 106.031 29.7735 106.293 29.2381C106.547 28.7026 106.652 28.1861 106.609 27.6888C106.559 27.1913 106.334 26.7377 105.935 26.3277Z" fill="black"/>
<path d="M87.9966 10.7136C89.1705 11.1948 90.0835 11.8604 90.7355 12.7103C91.3805 13.5631 91.7509 14.5329 91.8468 15.6197C91.9406 16.7116 91.7438 17.852 91.2564 19.041C90.7649 20.2401 90.1036 21.1931 89.2724 21.8999C88.4392 22.6117 87.4947 23.0425 86.4388 23.1923C85.3758 23.345 84.2573 23.1807 83.0834 22.6995C81.9095 22.2183 81.0001 21.5513 80.3551 20.6985C79.7031 19.8486 79.3302 18.8777 79.2363 17.7859C79.1404 16.6991 79.3382 15.5561 79.8298 14.357C80.3172 13.168 80.9775 12.2176 81.8107 11.5058C82.6418 10.799 83.5889 10.3692 84.6519 10.2165C85.7078 10.0667 86.8227 10.2324 87.9966 10.7136ZM86.9592 13.2014C86.4252 12.9824 85.9173 12.9508 85.4357 13.1065C84.952 13.2672 84.511 13.5748 84.1128 14.0295C83.7095 14.4821 83.3695 15.046 83.0928 15.7211C82.8161 16.3962 82.6625 17.0365 82.632 17.6419C82.5965 18.2453 82.6947 18.7739 82.9264 19.2279C83.1581 19.6819 83.541 20.0183 84.0751 20.2372C84.6142 20.4582 85.1306 20.4904 85.6244 20.3338C86.1131 20.1752 86.5591 19.8696 86.9624 19.417C87.3606 18.9623 87.6981 18.3974 87.9748 17.7223C88.2516 17.0472 88.4077 16.408 88.4432 15.8046C88.4736 15.1992 88.3704 14.6684 88.1337 14.2124C87.8898 13.7594 87.4983 13.4223 86.9592 13.2014Z" fill="black"/>
<path d="M68.2524 11.8104L67.582 18.983L64.1177 18.6592L65.2853 6.16818L68.6113 6.47908L68.3992 8.74795L68.5293 8.76012C68.8797 8.05457 69.4036 7.51018 70.1012 7.12694C70.7933 6.74319 71.6083 6.59515 72.5462 6.68282C73.3811 6.76086 74.098 7.01928 74.6968 7.45807C75.2957 7.89686 75.7413 8.48266 76.0337 9.21548C76.3208 9.94778 76.4214 10.8021 76.3356 11.7785L75.5922 19.7317L72.1279 19.4079L72.8135 12.0727C72.877 11.3349 72.7336 10.7336 72.3833 10.2688C72.033 9.80402 71.5298 9.54097 70.8738 9.47966C70.4564 9.44064 70.0572 9.49903 69.6762 9.65482C69.2947 9.81604 68.9751 10.076 68.7173 10.4347C68.4542 10.793 68.2992 11.2515 68.2524 11.8104Z" fill="black"/>
<path d="M54.8805 19.9706L54.5109 17.3832L61.99 16.3147L62.3596 18.9021L54.8805 19.9706ZM61.0867 22.1201L57.6423 22.6122L55.9882 11.0338C55.9427 10.7157 55.8588 10.4747 55.7364 10.3107C55.6147 10.152 55.4626 10.05 55.2801 10.0046C55.0922 9.95992 54.8824 9.95414 54.6506 9.98726C54.4889 10.0104 54.3291 10.0469 54.1712 10.097C54.0141 10.1524 53.8936 10.1944 53.8097 10.2229L52.9018 7.73718C53.0666 7.65863 53.3003 7.56199 53.6029 7.44725C53.9048 7.32712 54.2783 7.22701 54.7234 7.14693C55.5488 6.99599 56.2923 7.00254 56.9538 7.16656C57.6099 7.33134 58.1485 7.65592 58.5698 8.14028C58.991 8.62464 59.257 9.27418 59.3679 10.0889L61.0867 22.1201Z" fill="black"/>
<path d="M41.7329 10.5473L48.3527 21.204L45.5359 22.9538L44.3679 21.0736L44.2431 21.1512C44.4089 21.9135 44.3449 22.6359 44.051 23.3185C43.757 24.0011 43.2493 24.5665 42.5277 25.0147C41.7969 25.4687 41.0613 25.6724 40.3209 25.6259C39.5834 25.5841 38.9366 25.3064 38.3804 24.7929L38.2694 24.8619C38.4313 25.6074 38.3413 26.3396 37.9993 27.0584C37.6556 27.7847 37.093 28.3907 36.3113 28.8762C35.3168 29.494 34.3129 29.6785 33.2995 29.4298C32.2843 29.1887 31.4176 28.4899 30.6993 27.3336L26.2473 20.1666L29.196 18.335L33.2859 24.9191C33.6537 25.5112 34.0868 25.8575 34.5852 25.9582C35.0836 26.0588 35.5687 25.9626 36.0405 25.6696C36.577 25.3363 36.8893 24.9051 36.9773 24.3761C37.0682 23.8517 36.9413 23.3119 36.5965 22.7569L32.5539 16.2491L35.4193 14.4691L39.5481 21.1157C39.8728 21.6384 40.2817 21.9613 40.7748 22.0844C41.2633 22.2105 41.7504 22.1226 42.2361 21.8209C42.5645 21.6169 42.8088 21.3498 42.969 21.0195C43.1275 20.6967 43.1911 20.3399 43.1598 19.9491C43.1314 19.5629 42.9952 19.1732 42.7509 18.78L38.7773 12.3832L41.7329 10.5473Z" fill="black"/>
<path d="M18.6852 28.7437C19.4644 27.7425 20.351 27.0422 21.345 26.6428C22.3398 26.251 23.3736 26.1551 24.4461 26.3551C25.523 26.5584 26.5684 27.0547 27.5825 27.8439C28.6052 28.6399 29.3451 29.5332 29.8023 30.5238C30.2638 31.5177 30.4247 32.5434 30.2849 33.6006C30.146 34.6656 29.687 35.6986 28.9078 36.6998C28.1285 37.701 27.2415 38.3975 26.2466 38.7893C25.2526 39.1887 24.2173 39.2867 23.1404 39.0834C22.0679 38.8834 21.0202 38.3855 19.9976 37.5895C18.9835 36.8003 18.2457 35.9087 17.7842 34.9147C17.327 33.9241 17.1678 32.8963 17.3067 31.8314C17.4465 30.7741 17.906 29.7449 18.6852 28.7437ZM20.8022 30.412C20.4477 30.8675 20.2806 31.3481 20.301 31.8538C20.3257 32.3629 20.5034 32.8704 20.8342 33.3763C21.1616 33.8864 21.6132 34.3655 22.189 34.8137C22.7648 35.2618 23.3402 35.582 23.9151 35.7741C24.4867 35.9706 25.0223 36.0183 25.5219 35.9172C26.0214 35.8161 26.4484 35.5378 26.8029 35.0824C27.1608 34.6226 27.3307 34.1339 27.3127 33.6162C27.2914 33.1028 27.117 32.591 26.7896 32.0809C26.4588 31.575 26.0055 31.098 25.4297 30.6499C24.8539 30.2017 24.2802 29.8794 23.7086 29.683C23.1337 29.4908 22.5948 29.4474 22.0919 29.5528C21.5899 29.6658 21.16 29.9522 20.8022 30.412Z" fill="black"/>
<path d="M12.7182 38.2338L24.1793 43.3358L22.8075 46.4175L20.8077 45.5273L20.7546 45.6467C21.3729 46.1723 21.754 46.7621 21.8979 47.4163C22.0468 48.0726 21.9784 48.7216 21.6928 49.3633C21.6219 49.5225 21.5356 49.6897 21.4337 49.8649C21.3319 50.0401 21.2326 50.1896 21.1357 50.3134L18.3152 49.0578C18.4264 48.9285 18.5581 48.7398 18.7103 48.4916C18.8625 48.2435 18.9873 48.01 19.0847 47.7911C19.2929 47.3235 19.3769 46.8602 19.3369 46.4013C19.2995 45.9496 19.1494 45.5371 18.8865 45.1638C18.6213 44.7954 18.2549 44.5071 17.7873 44.299L11.3032 41.4124L12.7182 38.2338Z" fill="black"/>
<path d="M6.90409 54.8326C7.13684 53.5633 7.59426 52.5179 8.27635 51.6963C8.96281 50.8811 9.8252 50.314 10.8635 49.9951C11.9072 49.6772 13.0798 49.6376 14.3812 49.8762C15.6505 50.1089 16.7194 50.5596 17.5877 51.2281C18.456 51.8966 19.076 52.7272 19.4476 53.7198C19.8182 54.7178 19.8925 55.822 19.6705 57.0324C19.5213 57.8465 19.2511 58.5803 18.86 59.2337C18.4733 59.8936 17.9721 60.4383 17.3563 60.8679C16.7396 61.3028 16.0106 61.5954 15.1692 61.7456C14.3333 61.8968 13.3904 61.8762 12.3407 61.6837L11.4008 61.5113L13.3114 51.0917L15.4323 51.4806L14.1124 58.6787C14.6051 58.7691 15.0612 58.742 15.4808 58.5975C15.9003 58.453 16.2521 58.2103 16.536 57.8693C16.8244 57.5346 17.0142 57.1183 17.1055 56.6202C17.2008 56.1007 17.1647 55.618 16.9974 55.1721C16.8344 54.7326 16.5727 54.3635 16.2123 54.0649C15.8572 53.7673 15.4364 53.5711 14.95 53.4764L12.9336 53.1066C12.323 52.9947 11.7749 53.0104 11.2891 53.1539C10.8023 53.3026 10.4001 53.5638 10.0825 53.9374C9.76492 54.3109 9.55357 54.7842 9.44849 55.3573C9.37876 55.7376 9.36849 56.0955 9.41766 56.4312C9.46683 56.7668 9.57791 57.0667 9.7509 57.3309C9.92388 57.5952 10.1549 57.8147 10.4439 57.9895L9.65465 61.1164C8.92359 60.8163 8.31987 60.3651 7.84349 59.763C7.37148 59.1671 7.04917 58.4492 6.87656 57.6094C6.70832 56.7758 6.7175 55.8502 6.90409 54.8326Z" fill="black"/>
<path d="M19.9762 76.7208L17.3981 77.1499L16.1268 69.5121L18.7049 69.083L19.9762 76.7208ZM6.62073 72.8911L19.8902 70.6824C20.7872 70.5331 21.5602 70.5839 22.2091 70.8347C22.859 71.0908 23.3825 71.5005 23.7799 72.0636C24.1772 72.6268 24.4407 73.2977 24.5703 74.0766C24.6579 74.6029 24.6977 75.0904 24.6895 75.5388C24.6823 75.9927 24.6643 76.3324 24.6356 76.558L21.9555 76.3748C21.9761 76.2334 21.9887 76.0601 21.9932 75.8551C21.9986 75.6555 21.9843 75.4537 21.9504 75.2496C21.8663 74.7447 21.6896 74.4125 21.4202 74.2531C21.1562 74.0928 20.8147 74.0476 20.3957 74.1173L7.19066 76.3152L6.62073 72.8911Z" fill="black"/>
<path d="M8.52926 82.0513L20.4336 78.0922L21.5317 81.3938L9.62732 85.3529L8.52926 82.0513ZM22.5198 79.2403C22.3565 78.7495 22.3792 78.2743 22.5879 77.8147C22.8034 77.3585 23.1411 77.054 23.601 76.901C24.0556 76.7498 24.5033 76.7932 24.9439 77.0311C25.3915 77.2725 25.6968 77.6386 25.8601 78.1294C26.0233 78.6203 25.9972 79.0938 25.7817 79.5499C25.573 80.0095 25.2413 80.3149 24.7866 80.4661C24.3268 80.6191 23.8731 80.5749 23.4256 80.3335C22.9849 80.0956 22.683 79.7312 22.5198 79.2403Z" fill="black"/>
<path d="M19.3329 89.5879L13.1025 93.3009L11.3213 90.312L22.0982 83.8895L23.7958 86.7381L21.8944 87.8712L21.9696 87.9975C22.7386 87.8626 23.4727 87.967 24.1721 88.3109C24.8761 88.6519 25.4664 89.2224 25.9431 90.0223C26.3891 90.7706 26.6142 91.5207 26.6185 92.2725C26.6228 93.0242 26.4129 93.7356 25.9888 94.4067C25.5694 95.075 24.9411 95.6586 24.1038 96.1576L17.242 100.247L15.4608 97.258L21.7894 93.4865C22.4517 93.0981 22.8658 92.6231 23.0319 92.0614C23.2026 91.497 23.1095 90.9154 22.7527 90.3167C22.513 89.9144 22.2146 89.6105 21.8576 89.4049C21.5033 89.204 21.1086 89.116 20.6733 89.1409C20.2456 89.1676 19.7987 89.3166 19.3329 89.5879Z" fill="black"/>
<path d="M24.2857 108.276C23.5806 107.635 23.1068 106.873 22.8643 105.991C22.6294 105.108 22.6671 104.159 22.9772 103.146C23.2951 102.133 23.9247 101.108 24.8659 100.073C25.8328 99.009 26.808 98.2802 27.7914 97.8864C28.7785 97.4886 29.7154 97.3726 30.6022 97.5384C31.4966 97.7039 32.2843 98.0962 32.9653 98.7151C33.4851 99.1876 33.8376 99.6699 34.023 100.162C34.2161 100.654 34.3003 101.128 34.2758 101.584C34.259 102.04 34.1935 102.444 34.0792 102.796L34.1578 102.867L38.388 98.2137L40.9566 100.549L29.7055 112.926L27.167 110.619L28.5185 109.132L28.4097 109.033C28.0544 109.181 27.6506 109.282 27.1983 109.334C26.7536 109.386 26.2809 109.335 25.7802 109.182C25.2835 109.032 24.7854 108.73 24.2857 108.276ZM26.964 106.969C27.3791 107.346 27.8322 107.552 28.3233 107.586C28.8222 107.62 29.335 107.501 29.8617 107.23C30.3924 106.961 30.9086 106.551 31.4104 105.999C31.9121 105.447 32.2714 104.898 32.4882 104.352C32.705 103.806 32.7691 103.29 32.6804 102.805C32.5917 102.32 32.3399 101.888 31.9249 101.511C31.5018 101.127 31.0408 100.917 30.542 100.883C30.0431 100.849 29.5342 100.968 29.0152 101.239C28.4962 101.511 27.9931 101.915 27.506 102.45C27.0152 102.99 26.6558 103.536 26.4276 104.086C26.2072 104.636 26.1338 105.158 26.2074 105.652C26.2888 106.145 26.541 106.584 26.964 106.969Z" fill="black"/>
<path d="M45.501 121.357C44.3004 120.947 43.3492 120.338 42.6474 119.528C41.9526 118.716 41.5248 117.77 41.364 116.691C41.205 115.606 41.3331 114.456 41.7484 113.24C42.1673 112.014 42.7704 111.023 43.5577 110.268C44.3468 109.507 45.2638 109.021 46.3089 108.808C47.3609 108.592 48.4872 108.689 49.6878 109.099C50.8884 109.509 51.8361 110.12 52.5309 110.933C53.2327 111.742 53.6631 112.689 53.8221 113.773C53.9829 114.853 53.8539 116.005 53.435 117.232C53.0197 118.448 52.4175 119.436 51.6284 120.196C50.8411 120.952 49.9215 121.437 48.8695 121.654C47.8244 121.866 46.7016 121.768 45.501 121.357ZM46.3876 118.812C46.9338 118.999 47.4426 119 47.9141 118.816C48.3873 118.626 48.809 118.293 49.1793 117.815C49.5547 117.339 49.8604 116.756 50.0962 116.065C50.332 115.375 50.447 114.727 50.4411 114.12C50.4404 113.516 50.3108 112.994 50.0523 112.555C49.7938 112.116 49.3915 111.803 48.8453 111.616C48.2939 111.428 47.7765 111.427 47.293 111.613C46.8146 111.8 46.3877 112.132 46.0123 112.608C45.642 113.086 45.3389 113.67 45.1031 114.36C44.8673 115.051 44.7497 115.698 44.7504 116.302C44.7563 116.909 44.8911 117.432 45.1547 117.873C45.4253 118.311 45.8362 118.624 46.3876 118.812Z" fill="black"/>
<path d="M65.3946 119.164L65.6221 111.964L69.0997 112.074L68.7036 124.613L65.3647 124.508L65.4367 122.23L65.306 122.226C64.9998 122.952 64.5104 123.527 63.8378 123.953C63.1706 124.378 62.3662 124.576 61.4247 124.546C60.5866 124.52 59.8552 124.306 59.2305 123.905C58.6057 123.504 58.1249 122.947 57.7878 122.233C57.4563 121.52 57.3032 120.674 57.3287 119.694L57.581 111.71L61.0586 111.82L60.826 119.183C60.8081 119.924 60.9882 120.515 61.3665 120.957C61.7448 121.4 62.2632 121.631 62.9217 121.652C63.3408 121.665 63.7356 121.582 64.1063 121.403C64.4771 121.219 64.7801 120.94 65.0153 120.566C65.2559 120.192 65.3823 119.725 65.3946 119.164Z" fill="black"/>
<path d="M78.0135 110.278L78.5411 112.838L71.1415 114.362L70.614 111.803L78.0135 110.278ZM71.6872 108.513L75.095 107.81L77.4557 119.266C77.5205 119.58 77.6191 119.816 77.7514 119.972C77.8825 120.123 78.0406 120.215 78.2255 120.25C78.4158 120.283 78.6256 120.275 78.8549 120.228C79.0149 120.195 79.1721 120.149 79.3266 120.089C79.48 120.024 79.5977 119.975 79.6798 119.941L80.7383 122.367C80.5787 122.455 80.3513 122.566 80.0563 122.699C79.7624 122.838 79.3957 122.96 78.9564 123.068C78.1417 123.269 77.3992 123.308 76.7289 123.185C76.064 123.061 75.5064 122.77 75.0563 122.312C74.6062 121.854 74.3008 121.222 74.1402 120.416L71.6872 108.513Z" fill="black"/>
<path d="M91.9294 118.892L84.6581 108.668L87.3604 106.746L88.6433 108.55L88.7631 108.465C88.55 107.714 88.5689 106.989 88.8197 106.29C89.0705 105.59 89.542 104.994 90.2342 104.502C90.9353 104.003 91.6568 103.754 92.3986 103.754C93.1373 103.75 93.8002 103.987 94.3873 104.465L94.4938 104.389C94.2858 103.655 94.33 102.919 94.6264 102.18C94.9242 101.433 95.448 100.794 96.1979 100.26C97.1519 99.5818 98.1424 99.335 99.1693 99.52C100.198 99.6974 101.106 100.341 101.895 101.45L106.785 108.326L103.956 110.338L99.464 104.021C99.0601 103.453 98.6063 103.134 98.1025 103.065C97.5988 102.996 97.1207 103.122 96.6681 103.444C96.1534 103.81 95.8686 104.26 95.8137 104.793C95.7556 105.322 95.916 105.853 96.2947 106.386L100.735 112.629L97.9862 114.584L93.4511 108.207C93.0945 107.706 92.6663 107.409 92.1664 107.317C91.671 107.222 91.1903 107.34 90.7244 107.671C90.4094 107.895 90.1822 108.177 90.0429 108.517C89.9049 108.849 89.8636 109.209 89.9192 109.597C89.9716 109.981 90.1319 110.361 90.4001 110.738L94.7648 116.875L91.9294 118.892Z" fill="black"/>
<path d="M113.771 99.4597C113.052 100.505 112.208 101.255 111.239 101.712C110.268 102.161 109.242 102.317 108.16 102.18C107.073 102.04 106 101.606 104.942 100.877C103.874 100.142 103.084 99.2933 102.569 98.331C102.051 97.3657 101.83 96.3512 101.908 95.2876C101.985 94.2163 102.383 93.1583 103.102 92.1133C103.822 91.0684 104.667 90.3213 105.637 89.8722C106.606 89.4155 107.634 89.2572 108.721 89.3974C109.803 89.5345 110.878 89.9705 111.945 90.7054C113.004 91.4342 113.792 92.2812 114.311 93.2466C114.825 94.2088 115.044 95.2256 114.967 96.2968C114.89 97.3604 114.491 98.4147 113.771 99.4597ZM111.561 97.9177C111.888 97.4423 112.027 96.9527 111.977 96.449C111.923 95.9422 111.716 95.446 111.356 94.9603C110.999 94.4701 110.52 94.0182 109.919 93.6044C109.318 93.1906 108.725 92.9045 108.14 92.7462C107.558 92.5834 107.021 92.5671 106.528 92.6971C106.035 92.8272 105.625 93.1299 105.298 93.6053C104.967 94.0851 104.826 94.5829 104.874 95.0987C104.926 95.61 105.129 96.1107 105.486 96.6009C105.846 97.0866 106.326 97.5363 106.927 97.9501C107.528 98.3639 108.12 98.6522 108.702 98.815C109.287 98.9733 109.827 98.9852 110.323 98.8506C110.818 98.7085 111.23 98.3975 111.561 97.9177Z" fill="black"/>
<path d="M119.317 89.3752L107.556 85.01L108.73 81.8476L110.782 82.6092L110.827 82.4867C110.177 82.0014 109.759 81.4369 109.574 80.7932C109.384 80.1476 109.411 79.4956 109.655 78.837C109.716 78.6737 109.791 78.5013 109.882 78.32C109.972 78.1387 110.062 77.9833 110.151 77.8536L113.045 78.9278C112.943 79.0639 112.823 79.2606 112.687 79.5179C112.551 79.7752 112.441 80.0161 112.358 80.2408C112.18 80.7206 112.125 81.1883 112.194 81.6437C112.26 82.0921 112.436 82.4943 112.722 82.8502C113.01 83.201 113.394 83.4655 113.874 83.6436L120.528 86.1132L119.317 89.3752Z" fill="black"/>
<path d="M124.077 72.5209C123.922 73.8021 123.53 74.8736 122.899 75.7354C122.264 76.5911 121.438 77.2099 120.421 77.5918C119.399 77.973 118.231 78.0843 116.917 77.9258C115.636 77.7712 114.541 77.3869 113.634 76.7728C112.726 76.1586 112.057 75.3676 111.625 74.3996C111.194 73.4262 111.052 72.3286 111.2 71.1069C111.299 70.2852 111.523 69.5362 111.874 68.86C112.219 68.1778 112.686 67.6034 113.275 67.1369C113.864 66.665 114.573 66.3283 115.404 66.1269C116.229 65.9248 117.171 65.8877 118.231 66.0156L119.18 66.13L117.911 76.6471L115.77 76.3888L116.647 69.1233C116.149 69.0633 115.696 69.1183 115.286 69.2882C114.876 69.4581 114.54 69.7219 114.277 70.0797C114.01 70.4313 113.846 70.8585 113.785 71.3613C113.722 71.8856 113.787 72.3652 113.982 72.8C114.171 73.2287 114.455 73.5811 114.833 73.8571C115.206 74.1324 115.638 74.3024 116.129 74.3672L118.164 74.6128C118.78 74.6872 119.327 74.6379 119.803 74.465C120.279 74.2867 120.665 74.0014 120.959 73.6091C121.253 73.2168 121.435 72.7314 121.505 72.153C121.551 71.7692 121.54 71.4113 121.47 71.0793C121.4 70.7473 121.271 70.4547 121.082 70.2016C120.894 69.9485 120.649 69.7435 120.35 69.5867L120.947 66.4173C121.695 66.6721 122.325 67.0855 122.837 67.6574C123.345 68.2232 123.711 68.92 123.934 69.7477C124.153 70.5694 124.201 71.4938 124.077 72.5209Z" fill="black"/>
<line x1="56.4226" y1="51.2934" x2="56.4226" y2="80.3771" stroke="black" stroke-width="2"/>
<line y1="-1" x2="31.8505" y2="-1" transform="matrix(0.893755 0.448556 -0.366238 0.930521 55.4226 51.2934)" stroke="black" stroke-width="2"/>
<line y1="-1" x2="31.777" y2="-1" transform="matrix(0.884968 -0.465651 0.381442 0.924393 55.8745 80.3771)" stroke="black" stroke-width="2"/>
<defs>
<linearGradient id="paint0_linear_14_20" x1="30.5616" y1="42.3195" x2="238.88" y2="165.238" gradientUnits="userSpaceOnUse">
<stop stop-color="#4EBFFF"/>
<stop offset="0.602083" stop-color="#5647CE" stop-opacity="0.515198"/>
<stop offset="1" stop-color="#7A1BA7" stop-opacity="0.194792"/>
</linearGradient>
</defs>
</svg>
